<?xml version="1.0" encoding="UTF-8" standalone="no" ?>
<!DOCTYPE svg PUBLIC "-//W3C//DTD SVG 1.1//EN" "http://www.w3.org/Graphics/SVG/1.1/DTD/svg11.dtd">
<svg xmlns="http://www.w3.org/2000/svg" xmlns:xlink="http://www.w3.org/1999/xlink" version="1.1" width="128" height="128" viewBox="0 0 128 128" xml:space="preserve">
<desc>Created with Fabric.js 5.2.4</desc>
<defs>
</defs>
<g transform="matrix(1 0 0 1 64 64)" id="0cc454e2-d5fc-4a9c-b602-f00d0da70881"  >
<rect style="stroke: none; stroke-width: 1; stroke-dasharray: none; stroke-linecap: butt; stroke-dashoffset: 0; stroke-linejoin: miter; stroke-miterlimit: 4; fill: rgb(255,255,255); fill-rule: nonzero; opacity: 1; visibility: hidden;" vector-effect="non-scaling-stroke"  x="-64" y="-64" rx="0" ry="0" width="128" height="128" />
</g>
<g transform="matrix(Infinity NaN NaN Infinity 0 0)" id="823123cb-4aa2-44f1-a005-982f33b6fd60"  >
</g>
<g transform="matrix(0.19 0 0 0.19 64 64)"  >
<g style="" vector-effect="non-scaling-stroke"   >
		<g transform="matrix(3.78 0 0 3.78 0 0)" id="rect1"  >
<path style="stroke: rgb(0,0,0); stroke-width: 1.5; stroke-dasharray: none; stroke-linecap: butt; stroke-dashoffset: 0; stroke-linejoin: miter; stroke-miterlimit: 4; fill: none; fill-rule: nonzero; opacity: 1;" vector-effect="non-scaling-stroke"  transform=" translate(-94.37, -135.61)" d="M 68.946694 78.235687 L 119.79415 78.235687 C 124.08464000000001 78.235687 127.53872 81.689765 127.53872 85.980256 L 127.53872 184.3832 C 127.53872 188.67369 124.08464 192.12777 119.79415 192.12777 L 94.370422 163.27688 L 68.946694 192.12777 C 66.110079 195.34677 61.20212599999999 188.67369 61.20212599999999 184.3832 L 61.20212599999999 85.980256 C 61.20212599999999 81.689765 64.65620299999999 78.235687 68.946694 78.235687 z" stroke-linecap="round" />
</g>
		<g transform="matrix(3.78 0 0 3.78 -0.74 -54.99)" id="rect2"  >
<path style="stroke: rgb(0,0,0); stroke-width: 1.57968; stroke-dasharray: none; stroke-linecap: butt; stroke-dashoffset: 0; stroke-linejoin: miter; stroke-miterlimit: 4; fill: none; fill-rule: nonzero; opacity: 1;" vector-effect="non-scaling-stroke"  transform=" translate(-94.17, -121.06)" d="M 115.03587 98.939181 C 113.5801 98.939181 112.12421 99.48279 111.00873 100.57009 L 81.705607 129.13217 L 77.251615 124.79032 C 76.112497 123.67999 74.278327 123.67999 73.139205 124.79032 L 68.468172 129.34353 C 67.329051 130.45386 67.329053 132.24174 68.468172 133.35207 L 76.971012 141.64045 C 77.251253 141.91361 77.573537 142.11871 77.917208 142.25747 C 80.130086 143.68634 83.126205 143.44886 85.079045 141.54537 L 119.0625 108.42026 C 121.29348 106.24566 121.29348 102.74468 119.0625 100.57009 C 117.94702 99.48279 116.49164 98.93918 115.03587 98.939181 z" stroke-linecap="round" />
</g>
</g>
</g>
</svg>