<?xml version="1.0" encoding="UTF-8" standalone="no"?>
<!-- Created with Inkscape (http://www.inkscape.org/) -->

<svg
   width="210mm"
   height="297mm"
   viewBox="0 0 210 297"
   version="1.1"
   id="svg1"
   inkscape:version="1.3 (0e150ed6c4, 2023-07-21)"
   sodipodi:docname="io.github.aerocyber.sitemarker-symbolic.svg"
   xmlns:inkscape="http://www.inkscape.org/namespaces/inkscape"
   xmlns:sodipodi="http://sodipodi.sourceforge.net/DTD/sodipodi-0.dtd"
   xmlns="http://www.w3.org/2000/svg"
   xmlns:svg="http://www.w3.org/2000/svg">
  <sodipodi:namedview
     id="namedview1"
     pagecolor="#ffffff"
     bordercolor="#000000"
     borderopacity="0.25"
     inkscape:showpageshadow="2"
     inkscape:pageopacity="0.0"
     inkscape:pagecheckerboard="0"
     inkscape:deskcolor="#d1d1d1"
     inkscape:document-units="mm"
     inkscape:zoom="0.78363065"
     inkscape:cx="408.9937"
     inkscape:cy="523.84373"
     inkscape:window-width="1366"
     inkscape:window-height="699"
     inkscape:window-x="0"
     inkscape:window-y="0"
     inkscape:window-maximized="1"
     inkscape:current-layer="layer1"
     showgrid="false" />
  <defs
     id="defs1" />
  <g
     inkscape:label="Layer 1"
     inkscape:groupmode="layer"
     id="layer1">
    <path
       id="rect1"
       style="fill:none;stroke-width:1.5;stroke:#000000"
       d="m 68.946694,78.235687 h 50.847456 c 4.29049,0 7.74457,3.454078 7.74457,7.744569 V 184.3832 c 0,4.29049 -3.45408,7.74457 -7.74457,7.74457 L 94.370422,163.27688 68.946694,192.12777 c -2.836615,3.219 -7.744568,-3.45408 -7.744568,-7.74457 V 85.980256 c 0,-4.290491 3.454077,-7.744569 7.744568,-7.744569 z"
       sodipodi:nodetypes="ssssscssss" />
    <path
       id="rect2"
       style="fill:none;stroke:#000000;stroke-width:1.57968"
       d="M 115.03587 98.939181 C 113.5801 98.939181 112.12421 99.48279 111.00873 100.57009 L 81.705607 129.13217 L 77.251615 124.79032 C 76.112497 123.67999 74.278327 123.67999 73.139205 124.79032 L 68.468172 129.34353 C 67.329051 130.45386 67.329053 132.24174 68.468172 133.35207 L 76.971012 141.64045 C 77.251253 141.91361 77.573537 142.11871 77.917208 142.25747 C 80.130086 143.68634 83.126205 143.44886 85.079045 141.54537 L 119.0625 108.42026 C 121.29348 106.24566 121.29348 102.74468 119.0625 100.57009 C 117.94702 99.48279 116.49164 98.93918 115.03587 98.939181 z " />
  </g>
</svg>
