<?xml version="1.0" encoding="UTF-8" standalone="no" ?>
<!DOCTYPE svg PUBLIC "-//W3C//DTD SVG 1.1//EN" "http://www.w3.org/Graphics/SVG/1.1/DTD/svg11.dtd">
<svg xmlns="http://www.w3.org/2000/svg" xmlns:xlink="http://www.w3.org/1999/xlink" version="1.1" width="128" height="128" viewBox="0 0 128 128" xml:space="preserve">
<desc>Created with Fabric.js 5.2.4</desc>
<defs>
</defs>
<g transform="matrix(1 0 0 1 64 64)" id="13a00d45-3559-43b4-a2d6-c5fb2c47a4be"  >
<rect style="stroke: none; stroke-width: 1; stroke-dasharray: none; stroke-linecap: butt; stroke-dashoffset: 0; stroke-linejoin: miter; stroke-miterlimit: 4; fill: rgb(255,255,255); fill-rule: nonzero; opacity: 1; visibility: hidden;" vector-effect="non-scaling-stroke"  x="-64" y="-64" rx="0" ry="0" width="128" height="128" />
</g>
<g transform="matrix(Infinity NaN NaN Infinity 0 0)" id="75b9c72d-985b-45e3-95e2-b9498965221e"  >
</g>
<g transform="matrix(0.12 0 0 0.12 64 64)"  >
<g style="" vector-effect="non-scaling-stroke"   >
		<g transform="matrix(3.78 0 0 3.78 0 0)" id="rect1"  >
<path style="stroke: none; stroke-width: 1.5; stroke-dasharray: none; stroke-linecap: butt; stroke-dashoffset: 0; stroke-linejoin: miter; stroke-miterlimit: 4; fill: rgb(55,55,200); fill-rule: nonzero; opacity: 1;" vector-effect="non-scaling-stroke"  transform=" translate(-94.37, -135.61)" d="M 68.946694 78.235687 L 119.79415 78.235687 C 124.08464000000001 78.235687 127.53872 81.689765 127.53872 85.980256 L 127.53872 184.3832 C 127.53872 188.67369 124.08464 192.12777 119.79415 192.12777 L 94.370422 163.27688 L 68.946694 192.12777 C 66.110079 195.34677 61.20212599999999 188.67369 61.20212599999999 184.3832 L 61.20212599999999 85.980256 C 61.20212599999999 81.689765 64.65620299999999 78.235687 68.946694 78.235687 z" stroke-linecap="round" />
</g>
		<g transform="matrix(2.24 -2.18 2.24 2.18 13.88 -54.99)" id="rect2"  >
<rect style="stroke: none; stroke-width: 1.91219; stroke-dasharray: none; stroke-linecap: butt; stroke-dashoffset: 0; stroke-linejoin: miter; stroke-miterlimit: 4; fill: rgb(28,28,36); fill-rule: nonzero; opacity: 1;" vector-effect="non-scaling-stroke"  x="-35.5245055" y="-6.8061715" rx="6.8061714" ry="6.8061714" width="71.049011" height="13.612343" />
</g>
		<g transform="matrix(2.24 -2.18 2.24 2.18 -65.23 -9.04)" id="rect2-5"  >
<rect style="stroke: none; stroke-width: 1.09393; stroke-dasharray: none; stroke-linecap: butt; stroke-dashoffset: 0; stroke-linejoin: miter; stroke-miterlimit: 4; fill: rgb(28,28,36); fill-rule: nonzero; opacity: 1;" vector-effect="non-scaling-stroke"  x="-7.4227525" y="-10.6606495" rx="3.4751866" ry="3.4751866" width="14.845505" height="21.321299" />
</g>
</g>
</g>
</svg>