<?xml version="1.0" encoding="UTF-8" standalone="no"?>
<!-- Created with Inkscape (http://www.inkscape.org/) -->

<svg
   width="1024mm"
   height="1024mm"
   viewBox="0 0 1024 1024"
   version="1.1"
   id="svg1"
   inkscape:version="1.3.2 (091e20ef0f, 2023-11-25)"
   sodipodi:docname="sitemarker-1024x1024.svg"
   inkscape:export-filename="sitemarker-1024x1024.png"
   inkscape:export-xdpi="25.4"
   inkscape:export-ydpi="25.4"
   xmlns:inkscape="http://www.inkscape.org/namespaces/inkscape"
   xmlns:sodipodi="http://sodipodi.sourceforge.net/DTD/sodipodi-0.dtd"
   xmlns="http://www.w3.org/2000/svg"
   xmlns:svg="http://www.w3.org/2000/svg">
  <sodipodi:namedview
     id="namedview1"
     pagecolor="#ffffff"
     bordercolor="#000000"
     borderopacity="0.25"
     inkscape:showpageshadow="2"
     inkscape:pageopacity="0.0"
     inkscape:pagecheckerboard="0"
     inkscape:deskcolor="#d1d1d1"
     inkscape:document-units="px"
     inkscape:zoom="0.20671292"
     inkscape:cx="2007.6152"
     inkscape:cy="1623.0238"
     inkscape:window-width="1600"
     inkscape:window-height="831"
     inkscape:window-x="0"
     inkscape:window-y="32"
     inkscape:window-maximized="1"
     inkscape:current-layer="layer1" />
  <defs
     id="defs1" />
  <g
     inkscape:label="Layer 1"
     inkscape:groupmode="layer"
     id="layer1">
    <path
       id="rect5"
       style="fill:#916f6f;stroke-width:0.264583"
       d="m 252.39675,270.98791 121.36049,0 68.78816,64.56268 0,39.14047 c 0,19.42539 -15.63849,35.06388 -35.06387,35.06388 H 252.39675 c -19.42539,0 -35.06387,-15.63849 -35.06387,-35.06388 v -68.63928 c 0,-19.42539 15.63848,-35.06387 35.06387,-35.06387 z"
       sodipodi:nodetypes="sccssssss" />
    <rect
       style="fill:#ac9393;stroke-width:0.264583"
       id="rect4"
       width="553.6861"
       height="330.76596"
       x="216.81685"
       y="329.09552"
       ry="48.916927" />
    <path
       id="rect6"
       style="fill:#c8b7b7;stroke-width:0.264583"
       d="m 660.92429,327.62842 h 35.41068 c 21.19175,0 38.25226,17.06051 38.25226,38.25227 v 188.24245 l -0.30354,38.25226 h -19.10436 l -37.01476,-69.74034 -33.72155,69.74034 h -22.39757 l 0.62658,-38.25226 V 365.88069 c 0,-21.19176 17.06051,-38.25227 38.25226,-38.25227 z"
       sodipodi:nodetypes="ssscccccccss" />
  </g>
</svg>
