<?xml version="1.0" encoding="UTF-8" standalone="no"?>
<!-- Created with Inkscape (http://www.inkscape.org/) -->

<svg
   width="1494.4865"
   height="1494.4865"
   viewBox="0 0 1494.4865 1494.4865"
   version="1.1"
   id="svg1"
   inkscape:version="1.3.2 (091e20e, 2023-11-25, custom)"
   sodipodi:docname="sitemarker-1024x1024-rounded.svg"
   xmlns:inkscape="http://www.inkscape.org/namespaces/inkscape"
   xmlns:sodipodi="http://sodipodi.sourceforge.net/DTD/sodipodi-0.dtd"
   xmlns="http://www.w3.org/2000/svg"
   xmlns:svg="http://www.w3.org/2000/svg">
  <sodipodi:namedview
     id="namedview1"
     pagecolor="#ffffff"
     bordercolor="#000000"
     borderopacity="0.25"
     inkscape:showpageshadow="2"
     inkscape:pageopacity="0.0"
     inkscape:pagecheckerboard="0"
     inkscape:deskcolor="#d1d1d1"
     inkscape:document-units="px"
     inkscape:zoom="0.37939453"
     inkscape:cx="513.97683"
     inkscape:cy="594.36808"
     inkscape:window-width="1920"
     inkscape:window-height="991"
     inkscape:window-x="-9"
     inkscape:window-y="-9"
     inkscape:window-maximized="1"
     inkscape:current-layer="layer1" />
  <defs
     id="defs1" />
  <g
     inkscape:label="Layer 1"
     inkscape:groupmode="layer"
     id="layer1"
     transform="translate(218.76965,245.12744)">
    <circle
       style="fill:#eeaaff;stroke-width:5.64695"
       id="path1"
       cx="528.47357"
       cy="502.11578"
       r="747.24323" />
    <g
       id="g2"
       transform="translate(80.886742,-51.872881)">
      <path
         id="rect1"
         style="fill:none;stroke:#1a1a1a;stroke-width:6.98156"
         d="m 351.82214,268.5723 h 191.52939 c 32.24829,0 58.20991,25.96162 58.20991,58.20992 v 454.4129 c 0,32.24829 -25.96162,58.20991 -58.20991,58.20991 H 495.46918 L 447.58682,662.89754 399.70449,839.40503 h -47.88235 c -16.12415,0 -30.67664,-6.49041 -41.19807,-17.01185 -10.52146,-10.52143 -17.01185,-25.07392 -17.01185,-41.19806 v -454.4129 c 0,-32.2483 25.96162,-58.20992 58.20992,-58.20992 z"
         sodipodi:nodetypes="ssssscccsssss" />
      <path
         id="rect2"
         style="fill:#000000;stroke:none;stroke-width:4.9"
         d="m 352.44428,583.03784 34.24014,19.76856 19.97271,11.53125 136.07225,-235.68408 -19.9727,-11.53125 -119.26855,206.57919 -34.24014,-19.76856 z" />
      <path
         style="fill:#6600ff;fill-opacity:1;stroke:none;stroke-width:6.45766;stroke-dasharray:none"
         d="m 380.60124,598.42206 c -13.91976,-8.08243 -25.65666,-15.04333 -26.082,-15.46866 -0.56907,-0.56908 11.65727,-23.30975 14.68551,-27.31464 0.21232,-0.2808 7.81344,3.72228 16.89137,8.89575 9.07794,5.17346 16.95321,9.38233 17.50062,9.35305 0.5474,-0.0293 27.63213,-46.304 60.18828,-102.8327 32.55616,-56.52871 59.53994,-102.6144 59.96396,-102.41266 5.29118,2.51746 17.217,9.8168 17.22894,10.54518 0.0166,1.0115 -132.85888,231.74518 -134.25065,233.12163 -0.44955,0.44459 -12.20626,-5.80453 -26.12603,-13.88695 z"
         id="path3" />
    </g>
  </g>
</svg>
